<?xml version="1.0" standalone="no"?>
<!DOCTYPE svg PUBLIC "-//W3C//DTD SVG 20010904//EN"
 "http://www.w3.org/TR/2001/REC-SVG-20010904/DTD/svg10.dtd">
<svg version="1.0" xmlns="http://www.w3.org/2000/svg"
 width="700.000000pt" height="700.000000pt" viewBox="0 0 700.000000 700.000000"
 preserveAspectRatio="xMidYMid meet">
<metadata>
Created by potrace 1.11, written by Peter Selinger 2001-2013
</metadata>
<g transform="translate(0.000000,700.000000) scale(0.100000,-0.100000)"
fill="#000000" stroke="none">
<path d="M4962 6223 c-58 -35 -107 -63 -108 -63 -1 0 -76 -43 -166 -96 -176
-104 -180 -107 -347 -204 l-111 -64 0 -397 0 -397 -62 -16 c-35 -9 -130 -34
-213 -56 -82 -23 -157 -43 -165 -45 -39 -10 -460 -123 -765 -205 -187 -51
-347 -94 -355 -95 -8 -2 -67 -18 -130 -35 -63 -18 -125 -34 -137 -36 -12 -2
-34 -9 -48 -14 l-25 -10 0 79 0 79 -347 203 c-192 111 -377 221 -413 243 -58
35 -73 40 -133 42 -74 2 -91 -4 -192 -66 -58 -36 -170 -102 -246 -145 -20 -11
-134 -78 -255 -148 l-219 -129 1 -521 c1 -287 2 -525 3 -530 0 -4 11 -12 24
-17 12 -6 29 -14 37 -20 27 -18 602 -350 607 -350 2 0 23 -13 46 -28 76 -50
141 -79 178 -77 33 1 163 68 339 175 25 15 67 40 94 54 l49 27 40 -38 c22 -21
55 -51 72 -68 17 -16 96 -91 175 -165 217 -204 215 -203 360 -340 74 -70 151
-142 170 -160 19 -18 100 -94 180 -170 80 -76 161 -152 180 -170 19 -18 96
-90 170 -160 74 -69 164 -154 199 -186 l64 -60 -74 -46 -74 -46 3 -524 2 -524
208 -119 c114 -66 216 -125 227 -131 11 -6 108 -62 215 -124 170 -99 201 -113
240 -113 40 -1 72 15 270 130 124 71 317 183 430 248 113 65 207 119 209 121
8 7 3 1036 -5 1044 -5 4 -153 92 -329 195 -176 102 -323 189 -327 193 -5 6 14
110 98 527 4 17 8 39 9 50 2 11 17 85 33 165 17 80 32 156 35 170 3 14 7 34
10 45 2 11 7 36 11 55 3 19 8 44 10 55 6 29 77 386 82 410 2 11 13 65 24 120
26 127 29 142 36 185 3 19 10 49 14 65 5 17 11 44 13 60 11 71 50 261 56 267
4 4 36 -10 71 -31 107 -64 104 -65 421 118 667 383 599 340 599 380 1 20 1
254 2 521 l1 484 -417 244 -417 244 -66 2 c-64 1 -69 0 -171 -61z m-733 -1385
c0 -50 4 -94 8 -98 7 -6 202 -121 363 -212 133 -76 266 -152 269 -155 2 -1
-24 -141 -58 -310 -34 -169 -63 -317 -66 -328 -2 -11 -18 -90 -35 -175 -17
-85 -34 -168 -37 -185 -3 -16 -23 -115 -45 -220 -21 -104 -41 -201 -43 -215
-2 -14 -29 -151 -60 -305 -32 -154 -59 -289 -60 -300 -9 -54 -27 -140 -30
-143 -2 -2 -23 9 -47 24 -34 22 -56 28 -108 30 -36 1 -76 -4 -90 -10 -14 -7
-157 -90 -319 -185 l-294 -172 -56 54 c-55 53 -156 149 -236 223 -22 20 -108
101 -190 180 -83 78 -160 151 -171 161 -12 10 -90 84 -175 164 -85 81 -172
163 -194 184 -55 51 -299 281 -409 386 -50 48 -111 105 -136 127 -25 22 -43
42 -40 44 3 2 23 13 45 26 22 12 102 57 177 100 l137 77 1 406 c0 379 1 407
18 412 9 2 213 57 452 121 239 64 458 123 485 131 28 8 93 26 145 40 52 14
120 32 150 40 79 22 601 162 625 168 11 2 21 5 22 6 1 0 2 -40 2 -91z"/>
<path d="M3535 4114 c-44 -74 -87 -147 -96 -162 -9 -15 -76 -126 -149 -247
-72 -121 -133 -227 -135 -236 -2 -11 63 -55 230 -153 l234 -137 40 23 c22 13
82 48 133 78 99 58 103 60 221 129 42 24 75 49 74 55 -1 6 -9 23 -17 38 -34
62 -443 739 -449 742 -3 3 -42 -56 -86 -130z"/>
<path d="M3150 3366 c0 -3 84 -124 187 -268 103 -145 207 -291 231 -326 24
-35 48 -62 53 -60 5 2 108 143 229 313 120 171 224 316 230 323 27 31 -24 5
-197 -98 -102 -60 -188 -110 -193 -110 -5 0 -10 -3 -12 -7 -1 -5 -16 -15 -33
-24 -29 -15 -32 -14 -81 17 -28 18 -66 41 -85 52 -52 30 -260 151 -296 174
-18 11 -33 17 -33 14z"/>
</g>
</svg>
