<svg width="293" height="293" viewBox="0 0 293 293" fill="none" xmlns="http://www.w3.org/2000/svg">
<g clip-path="url(#clip0)">
<path d="M47.5122 119.954L212.368 75.6712L178.705 243.72L47.5122 119.954Z" stroke="#48575D" stroke-width="3"/>
<path d="M132 147.5L151.5 115L171 147.5V148.5L151.5 160L132 148.5V147.5Z" fill="#35B2FC"/>
<path d="M171 152L151.5 163.5L132 152V152.5L151.5 180L171 152.5V152Z" fill="#485A64"/>
<path d="M177 94.5V50.5L212 30H217.5L252.5 50.5V94L216 115H212.5L177 94.5Z" fill="#48575D"/>
<path d="M221 71L217 78V110L218 110.5L246 94.5L249.5 88V56.5L248.5 55.5L221 71Z" fill="#35B2FC"/>
<path d="M181 55.5L179.5 56.5V88L183.5 94.5L211 110.5L212 110V78L208 71L181 55.5Z" fill="#35B2FC"/>
<path d="M218 33.5H211L184 49.5V51.5L210.5 67H218L246 51V50L218 33.5Z" fill="#35B2FC"/>
<path d="M186 85.5V70L206.5 89.5L186 85.5Z" fill="#EEEEEE"/>
<path d="M22 142.5V98.5L57 78H62.5L97.5 98.5V142L61 163H57.5L22 142.5Z" fill="#48575D"/>
<path d="M66 119L62 126V158L63 158.5L91 142.5L94.5 136V104.5L93.5 103.5L66 119Z" fill="#35B2FC"/>
<path d="M26 103.5L24.5 104.5V136L28.5 142.5L56 158.5L57 158V126L53 119L26 103.5Z" fill="#35B2FC"/>
<path d="M63 81.5H56L29 97.5V99.5L55.5 115H63L91 99V98L63 81.5Z" fill="#35B2FC"/>
<path d="M31 133.5V118L51.5 137.5L31 133.5Z" fill="#EEEEEE"/>
<path d="M141 263.5V219.5L176 199H181.5L216.5 219.5V263L180 284H176.5L141 263.5Z" fill="#48575D"/>
<path d="M185 240L181 247V279L182 279.5L210 263.5L213.5 257V225.5L212.5 224.5L185 240Z" fill="#35B2FC"/>
<path d="M145 224.5L143.5 225.5V257L147.5 263.5L175 279.5L176 279V247L172 240L145 224.5Z" fill="#35B2FC"/>
<path d="M182 202.5H175L148 218.5V220.5L174.5 236H182L210 220V219L182 202.5Z" fill="#35B2FC"/>
<path d="M150 254.5V239L170.5 258.5L150 254.5Z" fill="#EEEEEE"/>
</g>
<defs>
<clipPath id="clip0">
<rect width="293" height="293" fill="white"/>
</clipPath>
</defs>
</svg>
